<svg viewBox="0 0 1400 636" fill="none"
  xmlns="http://www.w3.org/2000/svg">
  <path d="M125.196 635.405C100.514 635.405 80.5438 632.82 65.2927 627.663C50.0347 622.507 37.4645 614.99 27.6025 605.115C19.0742 596.142 12.3445 584.919 7.40672 571.46C2.46207 558 0 540.273 0 518.286V293.472C0 271.491 2.46207 253.655 7.40672 239.963C12.3377 226.278 19.0673 215.171 27.6025 206.643C37.4645 196.781 50.0347 189.258 65.2927 184.094C80.5438 178.938 100.514 176.353 125.196 176.353C149.878 176.353 169.842 179.047 185.1 184.43C200.351 189.812 212.914 197.219 222.79 206.643C231.763 215.171 238.609 226.278 243.321 239.963C248.033 253.655 250.385 271.491 250.385 293.472V343.281H154.809V284.047C154.809 275.971 154.139 269.911 152.792 265.876C151.445 261.834 149.427 258.469 146.732 255.782C141.35 250.399 134.162 247.705 125.196 247.705C116.23 247.705 109.042 250.399 103.66 255.782C100.965 258.476 98.9478 261.841 97.6005 265.876C96.2532 269.911 95.5829 275.971 95.5829 284.047V527.71C95.5829 535.787 96.2532 541.846 97.6005 545.882C98.9478 549.923 100.965 553.288 103.66 555.976C109.042 561.358 116.216 564.053 125.196 564.053C134.176 564.053 141.35 561.358 146.732 555.976C149.427 553.281 151.445 549.917 152.792 545.882C154.139 541.846 154.809 535.787 154.809 527.71V462.417H250.385V518.286C250.385 540.28 248.033 558 243.321 571.46C238.609 584.919 231.763 596.142 222.79 605.115C212.914 614.99 200.344 622.507 185.1 627.663C169.842 632.82 149.865 635.405 125.196 635.405Z" fill="black"/>
  <path d="M382.311 635.405C357.629 635.405 337.659 632.82 322.408 627.663C307.15 622.507 294.579 614.99 284.717 605.115C276.189 596.142 269.46 584.919 264.522 571.46C259.577 558 257.115 540.273 257.115 518.286V293.472C257.115 271.491 259.577 253.655 264.522 239.963C269.453 226.278 276.182 215.171 284.717 206.643C294.579 196.781 307.15 189.258 322.408 184.094C337.659 178.938 357.629 176.353 382.311 176.353C406.993 176.353 427.511 178.938 442.557 184.094C457.582 189.258 470.036 196.781 479.912 206.643C488.884 215.171 495.73 226.278 500.442 239.963C505.155 253.655 507.507 271.491 507.507 293.472V518.286C507.507 540.28 505.155 558 500.442 571.46C495.73 584.919 488.884 596.142 479.912 605.115C470.036 614.99 457.582 622.507 442.557 627.663C427.517 632.82 407.438 635.405 382.311 635.405ZM382.311 564.06C391.284 564.06 398.465 561.365 403.847 555.983C406.542 553.288 408.559 549.923 409.907 545.888C411.254 541.853 411.924 535.794 411.924 527.717V284.054C411.924 275.977 411.254 269.918 409.907 265.883C408.559 261.841 406.542 258.476 403.847 255.788C398.465 250.406 391.277 247.711 382.311 247.711C373.345 247.711 366.157 250.406 360.775 255.788C358.08 258.483 356.063 261.848 354.715 265.883C353.368 269.918 352.698 275.977 352.698 284.054V527.717C352.698 535.794 353.368 541.853 354.715 545.888C356.063 549.93 358.08 553.295 360.775 555.983C366.157 561.365 373.331 564.06 382.311 564.06Z" fill="black"/>
  <path d="M514.23 632.71V0H609.807V632.71H514.23Z" fill="black"/>
  <path d="M616.536 632.71V0H712.112V632.71H616.536Z" fill="black"/>
  <path d="M844.038 635.405C819.356 635.405 799.386 632.82 784.135 627.663C768.877 622.507 756.306 614.99 746.438 605.115C737.909 596.142 731.18 584.919 726.242 571.46C721.297 558 718.835 540.273 718.835 518.286V293.472C718.835 271.491 721.297 253.655 726.242 239.963C731.173 226.278 737.902 215.171 746.438 206.643C756.299 196.781 768.87 189.258 784.135 184.094C799.386 178.938 819.356 176.353 844.038 176.353C868.72 176.353 888.683 178.938 903.941 184.094C919.193 189.258 931.756 196.781 941.632 206.643C950.604 215.171 957.45 227.064 962.162 242.315C966.875 257.573 969.227 276.203 969.227 298.184V436.839H814.418V527.71C814.418 535.787 815.088 541.846 816.435 545.882C817.783 549.923 819.8 553.288 822.495 555.976C827.877 561.358 835.051 564.053 844.031 564.053C853.011 564.053 860.185 561.358 865.567 555.976C868.262 553.281 870.279 549.917 871.627 545.882C872.974 541.846 873.644 535.787 873.644 527.71V462.417H969.22V518.286C969.22 540.28 966.868 558 962.156 571.46C957.444 584.919 950.598 596.142 941.625 605.115C931.749 614.99 919.179 622.507 903.935 627.663C888.677 632.82 868.7 635.405 844.031 635.405H844.038ZM814.425 370.206H873.658V284.047C873.658 275.971 872.988 269.911 871.64 265.876C870.293 261.834 868.276 258.469 865.581 255.782C860.199 250.399 853.011 247.705 844.045 247.705C835.079 247.705 827.891 250.399 822.509 255.782C819.814 258.476 817.796 261.841 816.449 265.876C815.102 269.911 814.432 275.971 814.432 284.047V370.206H814.425Z" fill="black"/>
  <path d="M1101.15 635.405C1076.47 635.405 1056.5 632.82 1041.25 627.663C1025.99 622.507 1013.42 614.99 1003.55 605.115C995.024 596.142 988.295 584.919 983.357 571.46C978.412 558 975.95 540.273 975.95 518.286V293.472C975.95 271.491 978.412 253.655 983.357 239.963C988.288 226.278 995.018 215.171 1003.55 206.643C1013.41 196.781 1025.98 189.258 1041.25 184.094C1056.5 178.938 1076.47 176.353 1101.15 176.353C1125.84 176.353 1145.8 179.047 1161.06 184.43C1176.31 189.812 1188.87 197.219 1198.75 206.643C1207.72 215.171 1214.57 226.278 1219.28 239.963C1223.99 253.655 1226.34 271.491 1226.34 293.472V343.281H1130.77V284.047C1130.77 275.971 1130.1 269.911 1128.75 265.876C1127.4 261.834 1125.38 258.469 1122.69 255.782C1117.31 250.399 1110.12 247.705 1101.15 247.705C1092.19 247.705 1085 250.399 1079.62 255.782C1076.92 258.476 1074.9 261.841 1073.56 265.876C1072.21 269.911 1071.54 275.971 1071.54 284.047V527.71C1071.54 535.787 1072.21 541.846 1073.56 545.882C1074.9 549.923 1076.92 553.288 1079.62 555.976C1085 561.358 1092.17 564.053 1101.15 564.053C1110.13 564.053 1117.31 561.358 1122.69 555.976C1125.38 553.281 1127.4 549.917 1128.75 545.882C1130.1 541.846 1130.77 535.787 1130.77 527.71V462.417H1226.34V518.286C1226.34 540.28 1223.99 558 1219.28 571.46C1214.57 584.919 1207.72 596.142 1198.75 605.115C1188.87 614.99 1176.3 622.507 1161.06 627.663C1145.8 632.82 1125.82 635.405 1101.15 635.405Z" fill="black"/>
  <path d="M1338.08 632.71C1323.27 632.71 1311.04 631.144 1301.39 627.998C1291.74 624.866 1283.78 620.154 1277.5 613.862C1271.66 608.479 1267.29 601.75 1264.37 593.666C1261.45 585.589 1260 575.269 1260 562.706V254.427H1226.34V179.04H1260V0H1355.57V179.04H1400V254.427H1355.57V536.457C1355.57 548.576 1361.63 554.629 1373.74 554.629H1399.99V632.71H1338.07H1338.08Z" fill="black"/>
</svg>
