<svg width="187" height="19" viewBox="0 0 187 19" fill="none" xmlns="http://www.w3.org/2000/svg">
<path d="M17.0521 11.318C17.0261 13.892 16.9481 13.918 11.1501 13.918C5.58607 13.918 5.50807 13.866 5.50807 9.42C5.50807 6.794 5.71607 5.78 6.34007 5.26C6.86007 4.844 7.82207 4.74 11.1241 4.74C14.4521 4.74 15.9861 4.896 16.3761 5.234C16.6881 5.494 16.7401 5.728 16.7921 6.872H22.0701V6.014C22.0701 3.232 21.5501 1.958 20.0681 1.204C18.8721 0.58 17.2601 0.397999 12.6321 0.397999C3.55807 0.397999 1.66007 0.839999 0.72407 3.18C0.33407 4.142 0.23007 5.572 0.23007 9.446C0.23007 11.656 0.28207 13.086 0.36007 13.866C0.56807 15.634 1.08807 16.596 2.23207 17.246C3.63607 18.052 5.82007 18.26 12.6061 18.26C16.4541 18.26 18.3521 18.104 19.7561 17.662C21.6801 17.038 22.4081 15.764 22.4081 12.956C22.4081 12.696 22.3821 12.306 22.3561 11.318H17.0521ZM32.4227 5.39C28.2367 5.39 26.4427 5.676 25.2987 6.508C24.0767 7.392 23.7127 8.562 23.7127 11.448C23.7127 15.01 23.9987 16.154 25.1427 17.09C26.3127 18.052 27.8467 18.312 32.4487 18.312C36.9987 18.312 38.5327 18.052 39.7027 17.09C40.8207 16.154 41.1327 15.01 41.1327 11.63C41.1327 8.536 40.7947 7.418 39.5467 6.508C38.4027 5.676 36.6347 5.39 32.4227 5.39ZM32.4487 8.848C33.7487 8.848 34.8407 8.978 35.4127 9.212C36.2707 9.55 36.5307 10.148 36.5307 11.812C36.5307 14.412 35.9327 14.854 32.4487 14.854C30.9667 14.854 29.9267 14.724 29.3547 14.464C28.5227 14.126 28.3147 13.58 28.3147 11.942C28.3147 9.316 28.9387 8.848 32.4487 8.848ZM42.8398 0.657999V18H47.4418V0.657999H42.8398ZM49.5175 0.657999V18H54.1195V0.657999H49.5175ZM67.8173 14.074C67.6353 15.166 67.0893 15.374 64.1513 15.374C62.4873 15.374 61.5253 15.218 61.0313 14.854C60.5893 14.516 60.4593 14.1 60.4593 12.852H72.4713C72.4973 12.332 72.4973 11.76 72.4973 11.604C72.4973 8.822 72.0813 7.444 70.9893 6.534C69.8713 5.624 68.4153 5.364 64.2553 5.364C60.2513 5.364 58.7173 5.624 57.5213 6.456C56.2213 7.366 55.8573 8.588 55.8573 11.89C55.8573 15.036 56.2213 16.258 57.4173 17.168C58.5353 18 60.2253 18.312 63.7873 18.312C70.3653 18.312 72.0553 17.48 72.3933 14.074H67.8173ZM60.4593 10.33C60.5113 8.614 61.2393 8.224 64.3333 8.224C66.1533 8.224 67.0893 8.406 67.5053 8.848C67.7913 9.134 67.8433 9.368 67.8693 10.33H60.4593ZM86.0266 13.06C85.8186 14.464 85.0386 14.828 82.3346 14.828C81.1126 14.828 80.1246 14.698 79.5786 14.464C78.7466 14.126 78.4866 13.502 78.4866 11.89C78.4866 9.316 79.0846 8.822 82.2826 8.822C84.9866 8.822 85.8966 9.29 86.0526 10.694H90.7326C90.6546 8.38 90.3166 7.418 89.3286 6.638C88.1586 5.676 86.3646 5.364 82.2826 5.364C78.1226 5.364 76.5106 5.65 75.3406 6.612C74.2486 7.496 73.8846 8.796 73.8846 11.76C73.8846 15.01 74.2746 16.336 75.4706 17.168C76.6926 18.052 78.2786 18.312 82.0486 18.312C86.8846 18.312 88.3926 18 89.5626 16.804C90.3686 15.998 90.6286 15.114 90.7066 13.06H86.0266ZM93.7803 2.868V5.702H91.3623V9.004H93.7803V12.592C93.7803 13.606 93.7803 14.23 93.8063 14.438C93.8583 15.842 94.1183 16.518 94.7683 17.168C95.6783 18.052 96.8743 18.312 99.8123 18.312C102.984 18.312 104.388 17.922 105.324 16.752C106.026 15.842 106.208 15.088 106.26 12.748H102.048C102.048 14.022 102.022 14.126 101.866 14.412C101.658 14.854 101.138 15.036 100.202 15.036C99.3183 15.036 98.8503 14.854 98.6163 14.438C98.4083 14.126 98.3823 13.944 98.3823 12.592V9.004H105.662V5.702H98.3823V2.868H93.7803ZM114.141 0.657999V18H119.523L119.393 5.052H119.965L129.091 18H138.269V0.657999H132.887L133.017 13.58H132.471L123.397 0.657999H114.141ZM138.958 0.657999L148.89 11.864V18H154.35V11.864L163.84 0.657999H156.95L151.542 7.6L145.9 0.657999H138.958ZM180.669 11.318C180.643 13.892 180.565 13.918 174.767 13.918C169.203 13.918 169.125 13.866 169.125 9.42C169.125 6.794 169.333 5.78 169.957 5.26C170.477 4.844 171.439 4.74 174.741 4.74C178.069 4.74 179.603 4.896 179.993 5.234C180.305 5.494 180.357 5.728 180.409 6.872H185.687V6.014C185.687 3.232 185.167 1.958 183.685 1.204C182.489 0.58 180.877 0.397999 176.249 0.397999C167.175 0.397999 165.277 0.839999 164.341 3.18C163.951 4.142 163.847 5.572 163.847 9.446C163.847 11.656 163.899 13.086 163.977 13.866C164.185 15.634 164.705 16.596 165.849 17.246C167.253 18.052 169.437 18.26 176.223 18.26C180.071 18.26 181.969 18.104 183.373 17.662C185.297 17.038 186.025 15.764 186.025 12.956C186.025 12.696 185.999 12.306 185.973 11.318H180.669Z" fill="black"/>
</svg>
