<svg width="60" height="14" viewBox="0 0 60 14" fill="none" xmlns="http://www.w3.org/2000/svg">
<path d="M3.36 8.814H3.822C4.34 8.814 4.984 8.758 5.18 9.318H5.25V7.358H5.18C5.054 7.414 4.858 7.428 4.662 7.428H3.36V5.16H3.808C4.494 5.16 5.292 5.09 5.67 5.748H5.712V3.718H5.67C5.516 3.788 5.292 3.788 5.082 3.788H0.182V3.83C0.868 4.25 0.77 5.048 0.77 5.776V11.012C0.77 11.74 0.868 12.524 0.182 12.958V13H6.384L6.944 10.886H6.874C6.342 11.53 5.614 11.656 4.83 11.656C4.34 11.656 3.822 11.628 3.36 11.446V8.814ZM4.872 0.708L1.484 2.64L2.296 3.13L5.572 1.912L4.872 0.708ZM7.812 10.998C7.812 11.726 7.91 12.524 7.224 12.958V13H10.374C11.942 13 13.342 13.07 14.616 12.048C15.694 11.194 16.268 9.794 16.268 8.436C16.268 6.924 15.638 5.482 14.378 4.6C13.118 3.718 11.704 3.788 10.192 3.788H7.224V3.83C7.476 3.956 7.686 4.264 7.742 4.544C7.812 4.95 7.812 6.224 7.812 6.7V10.998ZM10.402 5.37C10.71 5.314 11.018 5.272 11.326 5.272C13.048 5.272 13.552 6.994 13.552 8.436C13.552 9.178 13.44 9.934 13.062 10.578C12.6 11.348 12.04 11.614 11.158 11.614C10.906 11.614 10.654 11.586 10.402 11.502V5.37ZM19.9036 5.79C19.9036 5.062 19.8056 4.264 20.4916 3.83V3.788H16.7256V3.83C17.4116 4.264 17.3136 5.062 17.3136 5.79V11.012C17.3136 11.74 17.4116 12.524 16.7256 12.958V13H20.4916V12.958C19.8056 12.524 19.9036 11.74 19.9036 11.012V5.79ZM25.4169 5.37C25.6549 5.3 25.8789 5.286 26.1309 5.286C26.6349 5.286 27.0689 5.426 27.2789 5.902L27.7549 3.788H21.2589L20.9929 3.746L20.4469 5.902L20.5449 5.832C21.0769 5.468 21.4829 5.314 22.1269 5.314C22.3789 5.314 22.5889 5.314 22.8269 5.37V10.998C22.8269 11.726 22.9249 12.524 22.2389 12.958V13H26.0329V12.958C25.4309 12.398 25.4169 11.768 25.4169 10.97V5.37ZM31.1009 5.79C31.1009 5.062 31.0029 4.264 31.6889 3.83V3.788H27.9229V3.83C28.6089 4.264 28.5109 5.062 28.5109 5.79V11.012C28.5109 11.74 28.6089 12.524 27.9229 12.958V13H31.6889V12.958C31.0029 12.524 31.1009 11.74 31.1009 11.012V5.79ZM32.2602 8.366C32.2602 11.32 34.4862 13.182 37.3562 13.182C40.1982 13.182 42.6202 11.404 42.6202 8.352C42.6202 5.272 40.4642 3.564 37.5242 3.564C34.6822 3.564 32.2602 5.384 32.2602 8.366ZM34.9762 7.988C34.9762 6.546 35.7042 4.964 37.3562 4.964C39.2742 4.964 39.9042 7.246 39.9042 8.842C39.9042 9.528 39.8062 10.242 39.3862 10.802C38.9382 11.404 38.2662 11.782 37.5242 11.782C36.7262 11.782 36.0262 11.25 35.6342 10.578C35.2422 9.878 34.9762 8.8 34.9762 7.988ZM51.696 5.832C51.696 5.02 51.71 4.404 52.312 3.83V3.788H49.624V3.83C50.226 4.404 50.24 5.02 50.24 5.832V9.458L45.942 3.83V3.788H43.03V3.83C43.786 4.67 43.842 5.048 43.842 6.126V10.956C43.842 11.768 43.828 12.384 43.212 12.958V13H45.914V12.958C45.312 12.384 45.298 11.768 45.298 10.956V7.26H45.34L48.028 10.844C48.714 11.74 48.98 12.216 50.016 12.734C50.436 12.944 51.206 13.294 51.696 13.294V5.832ZM53.2387 12.678C54.1067 13.014 55.0307 13.182 55.9547 13.182C56.9487 13.182 57.8447 13.056 58.6707 12.454C59.4127 11.908 59.7907 11.096 59.7907 10.186C59.7907 9.29 59.4267 8.66 58.7547 8.072C58.1947 7.582 57.5647 7.316 56.8927 7.022C56.3747 6.798 55.5627 6.532 55.5627 5.86C55.5627 5.202 56.2347 4.964 56.7807 4.964C57.4807 4.964 58.1667 5.244 58.7547 5.622V3.984C58.0267 3.704 57.1867 3.564 56.4027 3.564C55.5487 3.564 54.6807 3.732 53.9667 4.236C53.3227 4.698 52.9307 5.468 52.9307 6.266C52.9307 9.402 57.2007 9.052 57.2007 10.76C57.2007 11.544 56.3467 11.754 55.7167 11.754C54.7087 11.754 53.5607 11.306 52.7767 10.662L53.2387 12.678Z" fill="black"/>
</svg>
