<?xml version="1.0" standalone="no"?>
<!DOCTYPE svg PUBLIC "-//W3C//DTD SVG 20010904//EN"
 "http://www.w3.org/TR/2001/REC-SVG-20010904/DTD/svg10.dtd">
<svg version="1.0" xmlns="http://www.w3.org/2000/svg"
 width="540.000000pt" height="540.000000pt" viewBox="0 0 540.000000 540.000000"
 preserveAspectRatio="xMidYMid meet">
<metadata>
Created by potrace 1.14, written by Peter Selinger 2001-2017
</metadata>
<g transform="translate(0.000000,540.000000) scale(0.100000,-0.100000)"
fill="#000000" stroke="none">
<path d="M199 5195 c0 0 -1 -456 -2 -1013 l-2 -1012 1488 0 c1409 0 1487 -1
1488 -17 0 -10 1 -678 1 -1485 1 -1070 4 -1468 12 -1471 6 -2 461 -3 1011 -3
l1000 1 2 2485 c0 1367 -1 2492 -3 2500 -3 13 -289 15 -2499 15 -1372 0 -2495
0 -2496 0z"/>
<path d="M1178 2525 c-2 -2 -28 -6 -58 -10 -30 -4 -58 -9 -61 -11 -3 -2 -19
-5 -35 -8 -184 -33 -438 -179 -592 -341 -178 -187 -294 -423 -330 -670 -13
-93 -7 -325 11 -411 53 -250 180 -481 354 -644 94 -88 105 -96 201 -156 205
-129 416 -186 672 -180 152 4 158 5 282 36 528 135 912 629 908 1172 -1 46 -1
92 -1 103 -2 82 -66 344 -90 369 -5 6 -9 15 -9 22 0 21 -91 178 -145 250 -235
308 -587 482 -975 482 -71 0 -130 -2 -132 -3z"/>
</g>
</svg>
