<?xml version="1.0" standalone="no"?>
<!DOCTYPE svg PUBLIC "-//W3C//DTD SVG 20010904//EN"
 "http://www.w3.org/TR/2001/REC-SVG-20010904/DTD/svg10.dtd">
<svg version="1.0" xmlns="http://www.w3.org/2000/svg"
 width="144.000000pt" height="144.000000pt" viewBox="0 0 144.000000 144.000000"
 preserveAspectRatio="xMidYMid meet">
<metadata>
Created by potrace 1.14, written by Peter Selinger 2001-2017
</metadata>
<g transform="translate(0.000000,144.000000) scale(0.100000,-0.100000)"
fill="#000000" stroke="none">
<path d="M83 1060 l0 -300 36 -1 c20 0 172 -1 339 -1 l302 -1 0 -338 0 -339
303 0 302 0 -2 627 c-1 346 -2 634 -2 641 -1 9 -136 12 -639 12 l-639 0 0
-300z"/>
<path d="M270 674 c-222 -79 -288 -362 -124 -528 61 -62 133 -90 229 -91 69 0
88 4 139 30 201 102 239 375 72 522 -85 75 -215 102 -316 67z"/>
</g>
</svg>
