<?xml version="1.0" standalone="no"?>
<!DOCTYPE svg PUBLIC "-//W3C//DTD SVG 20010904//EN"
 "http://www.w3.org/TR/2001/REC-SVG-20010904/DTD/svg10.dtd">
<svg version="1.0" xmlns="http://www.w3.org/2000/svg"
 width="1081.000000pt" height="1081.000000pt" viewBox="0 0 1081.000000 1081.000000"
 preserveAspectRatio="xMidYMid meet">
<metadata>
Created by potrace 1.14, written by Peter Selinger 2001-2017
</metadata>
<g transform="translate(0.000000,1081.000000) scale(0.100000,-0.100000)"
fill="#000000" stroke="none">
<path d="M5337 10804 c-1 -1 -72 -5 -158 -8 -86 -3 -180 -8 -210 -11 -217 -21
-312 -33 -479 -61 -47 -8 -96 -16 -110 -19 -14 -2 -77 -15 -140 -30 -63 -14
-122 -28 -130 -30 -8 -1 -35 -8 -60 -15 -25 -7 -52 -14 -60 -16 -8 -2 -46 -13
-85 -24 -38 -12 -77 -23 -85 -25 -51 -12 -403 -138 -475 -170 -16 -7 -73 -32
-125 -55 -451 -199 -955 -514 -1301 -814 -302 -262 -557 -529 -781 -818 -101
-129 -278 -382 -278 -397 0 -6 -3 -11 -7 -11 -5 0 -13 -10 -19 -23 -6 -12 -44
-76 -84 -142 -89 -145 -249 -464 -320 -635 -28 -69 -57 -138 -64 -155 -43 -98
-184 -547 -200 -635 -2 -14 -11 -52 -19 -85 -9 -33 -25 -107 -36 -165 -27
-138 -29 -152 -42 -237 -5 -39 -12 -81 -14 -92 -2 -11 -7 -51 -10 -88 -4 -37
-9 -76 -10 -85 -2 -9 -7 -61 -10 -115 -4 -54 -9 -118 -11 -143 -5 -56 -5 -511
1 -600 3 -60 7 -103 20 -250 5 -57 14 -137 20 -180 3 -14 7 -43 9 -65 3 -22 8
-51 11 -65 3 -14 7 -41 10 -60 8 -55 14 -88 70 -340 43 -198 162 -570 245
-765 4 -11 18 -45 30 -75 164 -404 478 -927 773 -1290 24 -30 112 -135 122
-146 6 -6 42 -46 80 -90 160 -180 415 -420 624 -588 584 -470 1296 -827 2026
-1016 113 -29 361 -82 445 -95 19 -3 46 -7 60 -10 14 -3 48 -7 75 -11 28 -3
57 -7 65 -9 8 -2 47 -6 85 -10 39 -4 81 -8 95 -10 185 -27 884 -26 1060 0 14
2 57 7 95 10 39 4 77 8 85 10 8 2 35 7 60 10 74 10 220 35 300 51 41 9 86 18
100 20 34 7 258 63 295 74 330 102 473 153 690 248 138 61 374 177 470 232 22
13 60 34 85 48 25 14 64 38 87 53 23 16 44 29 48 29 19 0 416 281 540 381 225
183 555 505 726 709 437 519 759 1076 979 1695 35 100 118 364 124 399 3 14 7
29 10 34 3 5 8 24 11 43 3 19 14 68 25 109 18 74 41 181 45 210 1 8 10 56 18
105 9 50 21 128 27 175 6 47 13 101 15 120 3 19 7 51 9 71 27 221 27 855 0
1074 -6 48 -11 92 -19 164 -4 30 -8 61 -10 70 -1 9 -8 52 -15 96 -7 44 -14 89
-16 100 -3 11 -7 36 -10 55 -16 99 -86 385 -126 515 -12 39 -22 75 -24 81 -5
29 -94 275 -139 389 -117 292 -296 645 -434 855 -20 30 -38 60 -41 65 -13 25
-189 279 -224 322 -8 10 -52 65 -97 123 -257 327 -585 649 -942 924 -168 129
-399 283 -567 379 -19 11 -70 39 -112 63 -115 65 -336 173 -478 233 -69 28
-134 56 -145 61 -115 52 -605 205 -723 226 -14 3 -62 13 -107 24 -44 10 -100
22 -125 26 -25 4 -47 8 -50 9 -37 8 -84 15 -120 20 -25 3 -54 8 -65 10 -11 1
-45 6 -75 10 -30 4 -66 9 -80 11 -14 2 -56 7 -95 10 -38 3 -86 7 -105 9 -58 7
-498 23 -503 19z"/>
</g>
</svg>
